<svg id="Layer_1" data-name="Layer 1" xmlns="http://www.w3.org/2000/svg" viewBox="0 0 20 20">
    <defs>
        <style>.cls-1{fill:#8dc351;}.cls-2{fill:#fff;}</style>
    </defs>
    <circle id="Oval" class="cls-1" cx="10" cy="10" r="10"/>
    <path id="Shape" class="cls-2"
          d="M13.25,6.58c-.48-1.23-1.7-1.34-3.11-1.07L9.63,3.76l-1.07.3.49,1.72L8.2,6,7.71,4.31l-1.07.3.5,1.76-.68.21h0L5,7l.32,1.15.78-.23a.58.58,0,0,1,.75.3l.58,2,.11,0-.11,0,.8,2.8a.39.39,0,0,1-.3.47s-.78.23-.78.23l.16,1.34,1.39-.4.77-.22L10,16.22,11,15.91l-.51-1.75.86-.24.5,1.75L13,15.36l-.51-1.77c1.77-.62,2.9-1.44,2.57-3.17a1.89,1.89,0,0,0-2.17-1.77,1.73,1.73,0,0,0,.4-2.07Zm-.4,4.23c.38,1.33-1.94,1.84-2.66,2L9.51,10.5c.72-.21,2.94-1.07,3.34.32ZM11.4,7.63c.34,1.21-1.59,1.62-2.2,1.79L8.59,7.28c.6-.17,2.44-.91,2.81.35Z"/>
</svg>
