<svg id="Layer_1" data-name="Layer 1" xmlns="http://www.w3.org/2000/svg" viewBox="0 0 20 20">
    <defs>
        <style>.cls-1{fill:#f7931a;}.cls-2{fill:#fff;}</style>
    </defs>
    <circle id="Oval" class="cls-1" cx="10" cy="10" r="10"/>
    <path id="Shape" class="cls-2"
          d="M14.49,8.76c.2-1.31-.8-2-2.16-2.48l.44-1.78-1.08-.27L11.26,6l-.87-.2L10.83,4,9.75,3.75,9.31,5.52l-.7-.16h0L7.13,5,6.84,6.14s.8.18.78.19A.58.58,0,0,1,8.13,7L7.62,9l.12,0L7.62,9l-.71,2.83a.38.38,0,0,1-.49.26s-.79-.2-.79-.2L5.1,13.12l1.4.35.77.2-.44,1.8,1.08.26L8.35,14l.86.22L8.77,16l1.08.27.45-1.79c1.84.35,3.22.21,3.81-1.46a1.9,1.9,0,0,0-1-2.62,1.72,1.72,0,0,0,1.38-1.59ZM12,12.22c-.33,1.35-2.59.62-3.32.44l.59-2.38C10,10.46,12.37,10.82,12,12.22Zm.34-3.48c-.31,1.22-2.19.6-2.8.45L10.1,7C10.71,7.19,12.68,7.47,12.36,8.74Z"/>
</svg>
