<svg id="Layer_1" data-name="Layer 1" xmlns="http://www.w3.org/2000/svg" viewBox="0 0 20 20">
    <defs>
        <style>.cls-1{fill:#fff;}</style>
    </defs>
    <circle id="Oval" class="cls-1" cx="10" cy="10" r="10"/>
    <path id="Shape"
          d="M4.78,5.77c-.65-.68-1.31-1.34-2-2H4.93c.75.78,1.51,1.54,2.26,2.31l1,1a2.54,2.54,0,0,0,2.89.6,2.69,2.69,0,0,0,.78-.55l.47-.48c.17-.17.33-.35.51-.52s.48-.5.73-.74c.51-.53,1-1,1.53-1.58h2.14c-.25.25-.49.51-.75.76L14.61,6.39c-.29.27-.55.58-.84.85l-1,1A3.82,3.82,0,0,1,11.72,9a4,4,0,0,1-3.86-.23A4.43,4.43,0,0,1,7,8c-.29-.29-.57-.59-.86-.87s-.42-.44-.64-.65S5,6,4.78,5.77Zm10.07,8.1-.7-.71c-.21-.23-.44-.43-.64-.66l-.67-.68a4,4,0,0,0-2.58-1.18,2.44,2.44,0,0,0-.38,0,4.91,4.91,0,0,0-.67.08,3.91,3.91,0,0,0-1.87.94c-.17.16-.33.34-.51.5C6,13,5.12,13.88,4.28,14.76c-.34.32-.64.66-1,1l-.49.51H4.9q.81-.81,1.59-1.62c.29-.27.55-.57.83-.83l.93-1a2.51,2.51,0,0,1,3.12-.3,3.26,3.26,0,0,1,.62.55c.23.23.46.46.68.7s.54.56.83.82l1.59,1.63h2.1c-.25-.25-.48-.5-.73-.74C15.92,15,15.38,14.42,14.85,13.87Z"/>
</svg>
